<?xml version="1.0" encoding="UTF-8"?>
<svg id="Layer_2" data-name="Layer 2" xmlns="http://www.w3.org/2000/svg" viewBox="0 0 319.69 322.08">
  <g id="Layer_1-2" data-name="Layer 1">
    <g>
      <g>
        <path d="M4.89,152.64c.12-1.98,1.83-3.49,3.81-3.37s3.49,1.83,3.37,3.81-1.83,3.49-3.81,3.37-3.49-1.83-3.37-3.81Z"/>
        <path d="M7.12,125.75c-1.62.61-2.54,1.56-2.99,3.68-.4,1.91.26,3.13,1.69,3.43,1.64.34,2.65-.84,3.93-3.49,2.01-4.14,4.06-5.77,7.76-5,3.43.72,5.62,3.58,4.59,8.5-.77,3.67-2.3,6.01-5.12,7.36l-1.57-3.72c1.63-.83,2.6-1.96,3.05-4.11.51-2.43-.38-3.47-1.66-3.74-1.46-.3-2.46.4-4.05,3.62-1.96,3.9-4.36,5.55-7.82,4.83-3.31-.69-5.43-3.42-4.39-8.39.7-3.34,2.35-5.62,4.96-6.63l1.61,3.66Z"/>
        <path d="M26.77,116.12c-1.58,4.54-5.43,6.78-11.61,4.63l-2.87-1c-6.24-2.16-7.82-6.29-6.25-10.83,1.58-4.57,5.39-6.83,11.62-4.66l2.87,1c6.18,2.14,7.82,6.29,6.24,10.86ZM16.58,116.65c3.87,1.34,5.91.64,6.74-1.73.82-2.37-.34-4.22-4.21-5.56l-2.87-1c-3.87-1.34-5.92-.61-6.75,1.76-.82,2.37.35,4.19,4.21,5.53l2.87,1Z"/>
        <path d="M21.09,88.79c-1.72.19-2.85.87-3.82,2.81-.87,1.75-.53,3.09.77,3.74,1.5.74,2.77-.15,4.68-2.38,2.98-3.5,5.38-4.56,8.77-2.88,3.14,1.56,4.53,4.88,2.3,9.38-1.67,3.36-3.74,5.24-6.8,5.83l-.58-3.99c1.79-.39,3-1.24,3.98-3.21,1.1-2.22.5-3.45-.66-4.03-1.33-.66-2.48-.23-4.83,2.48-2.87,3.28-5.62,4.27-8.78,2.7-3.03-1.5-4.4-4.67-2.14-9.23,1.52-3.05,3.69-4.85,6.47-5.16l.64,3.95Z"/>
        <path d="M36.98,66.35c-1.86-.88-3.56-.67-4.81,1.02-1.5,2.02-.92,4.1,2.37,6.54l2.44,1.81c3.19,2.36,5.45,2.38,6.95.36,1.29-1.74,1.05-3.24-.42-4.9l2.46-3.31c3.44,3.43,3.52,6.86.9,10.39-2.86,3.86-7.21,4.84-12.47.94l-2.44-1.81c-5.3-3.93-5.58-8.35-2.72-12.21,2.53-3.41,6.04-4.4,10.22-2.18l-2.47,3.34Z"/>
        <path d="M46.62,57.92l5.16-5.32-6.1-5.92,3.02-3.11,15.35,14.9-3.02,3.12-6.63-6.43-5.16,5.32,6.63,6.43-3.02,3.12-15.35-14.9,3.02-3.11,6.1,5.92Z"/>
        <path d="M64.99,57.49l-7.39-21.41,3.26-2.57,19.08,12.2-3.63,2.86-3.54-2.38-5.63,4.43,1.49,4-3.65,2.88ZM65.79,47.03l3.8-2.99-6.56-4.42,2.76,7.41Z"/>
        <path d="M81.17,20.01l1.94,3.14-5.01,3.1,9.3,15.06-3.69,2.28-9.3-15.06-5.01,3.1-1.94-3.14,13.71-8.47Z"/>
        <path d="M97.42,18.37c-1.46-.93-2.77-1.1-4.74-.19-1.77.82-2.35,2.08-1.73,3.4.71,1.52,2.26,1.62,5.14,1.06,4.52-.87,7.05-.2,8.65,3.23,1.48,3.18.49,6.64-4.06,8.76-3.4,1.58-6.19,1.75-8.95.3l2.04-3.48c1.64.81,3.12.91,5.12-.02,2.25-1.05,2.55-2.38,2-3.56-.63-1.35-1.8-1.73-5.32-1.08-4.29.77-7.05-.17-8.54-3.38-1.43-3.06-.51-6.39,4.1-8.54,3.09-1.44,5.91-1.48,8.28.01l-1.97,3.48Z"/>
        <path d="M117.71,14.3l7.18-1.83-2.1-8.23,4.2-1.07,5.3,20.72-4.2,1.08-2.29-8.95-7.18,1.83,2.29,8.95-4.2,1.07-5.3-20.72,4.2-1.07,2.1,8.23Z"/>
        <path d="M133.59,23.55l4.93-22.1,4.13-.48,9.85,20.39-4.59.53-1.76-3.88-7.11.82-.83,4.18-4.62.54ZM139.75,15.06l4.8-.56-3.27-7.2-1.53,7.76Z"/>
        <path d="M170.55.29l-.23,12.71c-.11,6.32-3.63,8.89-8.37,8.81-4.74-.08-8.17-2.78-8.05-9.07l.23-12.74,4.34.08-.23,12.74c-.06,3.66,1.12,5.29,3.78,5.34,2.67.05,3.9-1.54,3.97-5.2l.23-12.74,4.34.08Z"/>
        <path d="M190.93,2.98l-.53,3.65-5.83-.85-2.55,17.51-4.29-.63,2.55-17.51-5.83-.85.53-3.65,15.95,2.33Z"/>
        <path d="M207.91,7.33l-.94,3.57-8.69-2.29-1.22,4.64,7.79,2.06-.93,3.54-7.79-2.06-1.42,5.39,8.69,2.29-.93,3.54-12.89-3.4,5.45-20.68,12.89,3.4Z"/>
        <path d="M207.37,18.51l7.54,2.74-1.19,3.26-7.54-2.74,1.19-3.26Z"/>
        <path d="M213.63,32.11l9.3-19.27,6.84,3.3c4.36,2.1,6.32,5.8,3.36,11.95l-1.21,2.51c-2.95,6.12-7.09,6.91-11.44,4.81l-6.84-3.3ZM228.01,28.71l1.21-2.51c1.6-3.32,1.54-5.49-1.05-6.74l-2.93-1.42-6.1,12.65,2.93,1.42c2.6,1.25,4.34-.08,5.94-3.4Z"/>
        <path d="M236.52,44.83c-4.01-2.64-5.23-6.93-1.64-12.4l1.67-2.54c3.63-5.52,8.02-6.04,12.03-3.4,4.04,2.66,5.29,6.9,1.66,12.42l-1.67,2.54c-3.6,5.46-8.02,6.04-12.06,3.38ZM238.51,34.82c-2.25,3.42-2.07,5.58.02,6.96,2.1,1.38,4.17.71,6.42-2.71l1.67-2.54c2.25-3.42,2.05-5.59-.05-6.97-2.1-1.38-4.15-.69-6.4,2.73l-1.67,2.54Z"/>
        <path d="M254.62,58.52l2.59-8.87-2.62-2.27-5.5,6.35-3.28-2.84,14-16.17,5.79,5.01c3.73,3.23,4.61,6.9,1.76,10.18-1.89,2.18-4.13,2.74-6.52,1.94l-2.62,9.79-3.61-3.12ZM259.18,46.53c1.95,1.68,3.44,2.24,4.9.55,1.46-1.69.74-3.13-1.2-4.82l-2.2-1.91-3.69,4.27,2.2,1.91Z"/>
        <path d="M259.63,63.16l15.99-14.2,5.04,5.68c3.21,3.62,3.6,7.79-1.5,12.32l-2.09,1.85c-5.08,4.51-9.2,3.65-12.41.03l-5.04-5.68ZM274.2,65.56l2.09-1.85c2.76-2.45,3.54-4.47,1.62-6.62l-2.16-2.43-10.5,9.33,2.16,2.43c1.91,2.16,4.03,1.6,6.79-.85Z"/>
        <path d="M275.84,83.69c-2.69-3.98-2.17-8.42,3.26-12.08l2.52-1.7c5.47-3.7,9.73-2.49,12.42,1.49,2.71,4.01,2.23,8.41-3.24,12.1l-2.52,1.7c-5.42,3.66-9.73,2.49-12.43-1.52ZM281.53,75.21c-3.39,2.29-4.06,4.35-2.65,6.43,1.41,2.08,3.58,2.26,6.97-.03l2.52-1.7c3.39-2.29,4.04-4.38,2.64-6.46s-3.56-2.23-6.96.06l-2.52,1.7Z"/>
        <path d="M298.93,101.7l-1.75.87c-5.85,2.92-9.82,1.5-11.98-2.82-2.15-4.3-1.05-8.62,4.81-11.54l2.44-1.22c6.19-3.09,10.25-1.34,12.39,2.96,2.01,4.02.94,7.57-2.68,10.1l-1.85-3.72c1.58-1.21,2.23-2.81,1.27-4.75-1.12-2.25-3.24-2.68-6.9-.85l-2.72,1.36c-3.66,1.83-4.59,3.78-3.47,6.03,1.09,2.19,2.9,2.4,5.31,1.47l-1.61-3.22,3.27-1.63,3.47,6.96Z"/>
        <path d="M315.51,117.68l-20.26,6.88-1.17-3.43,9.86-12.15-12.54,4.25-1.33-3.9,20.26-6.88,1.16,3.41-10.02,12.24,12.71-4.31,1.33,3.9Z"/>
        <path d="M319.69,136.87l-3.62.74-1.79-8.81-4.71.96,1.61,7.9-3.58.73-1.61-7.9-5.47,1.11,1.79,8.81-3.58.73-2.66-13.06,20.96-4.26,2.66,13.06Z"/>
        <path d="M313.98,152.79c.12,1.98-1.39,3.69-3.37,3.8s-3.69-1.39-3.81-3.37,1.39-3.69,3.37-3.81,3.69,1.39,3.81,3.37Z"/>
      </g>
      <g>
        <path d="M14.31,177.58c1.2-.91,1.74-1.93,1.6-3.81-.13-1.7-.99-2.55-2.25-2.45-1.45.11-2.01,1.35-2.43,3.87-.66,3.95-1.98,5.82-5.26,6.08-3.04.24-5.57-1.62-5.92-5.98-.26-3.26.45-5.59,2.48-7.4l2.22,2.72c-1.16,1.09-1.69,2.27-1.54,4.18.17,2.15,1.17,2.81,2.3,2.72,1.29-.1,1.96-.94,2.5-4.02.68-3.74,2.29-5.71,5.35-5.95,2.93-.23,5.38,1.53,5.72,5.94.23,2.96-.59,5.27-2.53,6.75l-2.24-2.67Z"/>
        <path d="M22.05,194.99l-3.16.59-.94-5.04-15.16,2.81-.69-3.72,15.16-2.81-.94-5.04,3.16-.59,2.56,13.81Z"/>
        <path d="M25.86,208l-3.08.9-2.2-7.51-4.02,1.18,1.98,6.74-3.06.9-1.98-6.74-4.66,1.37,2.2,7.51-3.06.9-3.27-11.14,17.88-5.24,3.27,11.14ZM28.9,201.01l1.12,3.81-4.12-1.69-.94-3.21,3.95,1.09Z"/>
        <path d="M13.43,227l5.46-5.91-1.16-2.79-6.75,2.82-1.46-3.49,17.19-7.17,2.57,6.15c1.65,3.96.91,7.17-2.58,8.62-2.32.97-4.28.53-5.84-1.02l-5.84,6.62-1.6-3.84ZM21.65,219.42c.86,2.07,1.81,3.08,3.6,2.33s1.79-2.15.93-4.22l-.98-2.34-4.53,1.89.98,2.34Z"/>
        <path d="M18.67,237.62l-1.75-3.35,16.52-8.62,1.75,3.35-16.52,8.62Z"/>
        <path d="M25.67,243.42l4.12,6.66-2.71,1.68-6.11-9.88,15.85-9.8,1.99,3.21-13.14,8.13Z"/>
        <path d="M31.2,257.34l-2.22-3.06,15.09-10.94,2.22,3.06-15.09,10.94Z"/>
        <path d="M50.99,259.81c.44-1.44.28-2.58-.95-4.02-1.11-1.29-2.3-1.48-3.26-.66-1.11.95-.83,2.27.31,4.56,1.79,3.59,1.82,5.87-.68,8.01-2.32,1.98-5.46,1.97-8.3-1.36-2.12-2.48-2.92-4.79-2.35-7.44l3.4.9c-.29,1.57-.03,2.83,1.22,4.29,1.4,1.64,2.6,1.58,3.46.84.98-.84,1.03-1.91-.34-4.72-1.65-3.42-1.51-5.96.83-7.96,2.24-1.91,5.25-1.93,8.12,1.44,1.93,2.26,2.63,4.61,1.93,6.95l-3.38-.84Z"/>
        <path d="M44.27,273.08l17.46-9.18,2.64,2.47-8,18.03-2.94-2.75,1.59-3.36-4.55-4.26-3.25,1.81-2.96-2.77ZM53.38,272.39l3.08,2.88,2.95-6.23-6.02,3.35Z"/>
        <path d="M79.55,278.63l-1.95,2.55-4.08-3.11-9.35,12.26-3.01-2.29,9.35-12.26-4.08-3.11,1.95-2.55,11.16,8.51Z"/>
        <path d="M74.24,297.24l-3.17-2.06,10.14-15.63,3.17,2.06-10.14,15.63Z"/>
        <path d="M84.33,303.38c-3.69-1.97-5.1-5.59-2.42-10.62l1.24-2.34c2.7-5.08,6.47-5.89,10.17-3.92,3.72,1.98,5.15,5.56,2.44,10.63l-1.24,2.34c-2.68,5.03-6.47,5.88-10.19,3.9ZM85.25,294.53c-1.68,3.15-1.35,5,.58,6.03s3.68.28,5.35-2.87l1.24-2.34c1.68-3.15,1.33-5.02-.6-6.04s-3.65-.26-5.33,2.88l-1.24,2.34Z"/>
        <path d="M115.58,296.43l-6.65,17.4-2.95-1.13-2.67-13.36-4.12,10.77-3.35-1.28,6.65-17.4,2.93,1.12,2.63,13.53,4.17-10.92,3.36,1.28Z"/>
        <path d="M125.27,305.51c1.68.4,2.72,2.09,2.32,3.77s-2.09,2.72-3.77,2.32-2.72-2.09-2.32-3.77,2.09-2.72,3.77-2.32Z"/>
        <path d="M146.95,307.56c-.67-1.35-1.56-2.08-3.44-2.28-1.69-.19-2.69.49-2.83,1.75-.16,1.45.95,2.22,3.35,3.12,3.76,1.39,5.34,3.04,4.98,6.31-.34,3.03-2.64,5.17-6.99,4.69-3.25-.36-5.4-1.5-6.8-3.82l3.09-1.67c.86,1.34,1.92,2.09,3.82,2.3,2.15.24,2.98-.62,3.1-1.75.14-1.29-.55-2.1-3.47-3.21-3.54-1.37-5.17-3.32-4.84-6.38.32-2.93,2.51-4.99,6.91-4.5,2.95.33,5.07,1.57,6.16,3.75l-3.04,1.7Z"/>
        <path d="M160.01,322.07c-4.18.07-7.17-2.42-7.26-8.12l-.04-2.65c-.09-5.75,2.81-8.28,6.99-8.35,4.21-.07,7.19,2.37,7.29,8.12l.04,2.65c.09,5.7-2.81,8.28-7.02,8.35ZM156.53,313.9c.06,3.56,1.24,5.03,3.43,4.99,2.19-.04,3.35-1.54,3.29-5.1l-.04-2.65c-.06-3.56-1.27-5.03-3.46-4.99-2.19.04-3.32,1.54-3.26,5.1l.04,2.64Z"/>
        <path d="M175.44,321.05l-3.77.33-1.63-18.56,3.77-.33,1.63,18.56Z"/>
        <path d="M191.28,299.77l3.27,18.34-3.11.55-9.18-10.07,2.03,11.35-3.54.63-3.27-18.34,3.08-.55,9.23,10.23-2.05-11.51,3.54-.63Z"/>
        <path d="M205.66,300.62c-1.14-.98-2.25-1.29-4.06-.74-1.63.5-2.28,1.51-1.91,2.73.42,1.39,1.75,1.67,4.31,1.54,4-.2,6.1.68,7.07,3.83.89,2.92-.38,5.79-4.56,7.06-3.12.95-5.55.76-7.76-.82l2.18-2.75c1.32.9,2.58,1.16,4.42.6,2.07-.63,2.49-1.75,2.16-2.83-.38-1.24-1.34-1.71-4.46-1.58-3.79.14-6.06-1-6.96-3.94-.86-2.81.33-5.58,4.57-6.87,2.84-.87,5.27-.56,7.14,1.01l-2.12,2.76Z"/>
        <path d="M219.39,296.78c1.58-.7,3.43,0,4.14,1.58s0,3.43-1.58,4.14-3.43,0-4.14-1.58,0-3.43,1.58-4.14Z"/>
        <path d="M236.57,294.47l3.4,5.61-3.23,1.96-9.64-15.94,5.71-3.45c3.67-2.22,6.98-1.92,9.05,1.5,2.04,3.37.9,6.59-2.8,8.83l-2.47,1.5ZM236.93,290.52c2.24-1.36,2.71-2.71,1.68-4.42-.92-1.52-2.37-1.78-4.61-.43l-2.01,1.22,2.93,4.85,2.01-1.22Z"/>
        <path d="M260.1,286.16l-7.13-3.73-2.39,1.85,4.48,5.78-2.99,2.32-11.41-14.72,5.27-4.09c3.39-2.63,6.68-2.75,8.99.23,1.54,1.98,1.63,4,.54,5.9l7.91,3.91-3.29,2.55ZM250.64,280.21c1.77-1.37,2.5-2.55,1.31-4.09-1.19-1.54-2.55-1.17-4.32.2l-2,1.55,3.01,3.88,2-1.56Z"/>
        <path d="M271.6,276.14c-2.98,2.93-6.86,3.19-10.86-.87l-1.86-1.89c-4.03-4.1-3.68-7.93-.7-10.87,3-2.95,6.84-3.25,10.88.85l1.86,1.89c4,4.06,3.68,7.93.68,10.89ZM263.44,272.62c2.5,2.54,4.37,2.78,5.93,1.25,1.56-1.53,1.36-3.43-1.14-5.97l-1.86-1.89c-2.5-2.54-4.39-2.76-5.95-1.23-1.56,1.53-1.34,3.41,1.16,5.95l1.86,1.89Z"/>
        <path d="M273.18,245.85l2.49,2.03-3.24,3.97,11.95,9.75-2.39,2.93-11.95-9.75-3.24,3.97-2.49-2.03,8.88-10.88Z"/>
        <path d="M280.67,234.55l2.68,1.77-4.32,6.53,3.49,2.31,3.87-5.86,2.66,1.76-3.87,5.86,4.05,2.68,4.32-6.53,2.66,1.76-6.4,9.68-15.54-10.28,6.4-9.68Z"/>
        <path d="M291.57,226.31c-1.72-.5-3.15-.08-3.99,1.55-1,1.94-.22,3.66,2.95,5.29l2.35,1.22c3.07,1.59,5.02,1.29,6.02-.65.87-1.68.45-2.93-1.04-4.16l1.65-3.19c3.43,2.47,3.98,5.41,2.22,8.81-1.92,3.72-5.53,5.17-10.59,2.55l-2.35-1.22c-5.11-2.64-5.96-6.4-4.04-10.12,1.7-3.29,4.58-4.62,8.49-3.3l-1.66,3.21Z"/>
        <path d="M293.43,206.84l2.99,1.17-1.86,4.78,14.37,5.6-1.37,3.52-14.37-5.6-1.86,4.78-2.99-1.17,5.1-13.08Z"/>
        <path d="M312.79,206.75l-1.1,3.62-17.82-5.4,1.1-3.62,17.83,5.4Z"/>
        <path d="M315.88,195.37c-.87,4.09-3.96,6.45-9.53,5.27l-2.59-.55c-5.63-1.19-7.45-4.58-6.58-8.68.87-4.12,3.91-6.49,9.54-5.3l2.59.55c5.57,1.18,7.45,4.58,6.58,8.7ZM307.14,196.94c3.49.74,5.18-.09,5.63-2.23.45-2.14-.75-3.61-4.24-4.35l-2.59-.55c-3.49-.74-5.18.12-5.64,2.26-.45,2.14.76,3.58,4.25,4.32l2.59.55Z"/>
        <path d="M300.55,167.28l18.56,1.58-.27,3.15-12.1,6.26,11.49.98-.3,3.58-18.56-1.58.27-3.12,12.27-6.27-11.65-.99.3-3.58Z"/>
      </g>
    </g>
    <g>
      <path d="M236.92,91.65c-4-12-16.56-14.13-28.86-15.12l-8.36-18.27c-10.64,8.06-11.84,20.74-16.36,29.5-4.05,7.85-6.44,15.62-6.57,24.58-.2,13.12-6.75,24.47-18.57,30.22l-18.24,8.87c-50.46,19.56-56.28,93.66-15.53,90.03-2.18-5.04-1.69-12.84,2.61-24.79,1.47-4.61,4.3-8.48,7.92-11.57,6.38-5.54,15.01-7.53,23.33-7.12,6.49.66,10.67-4.78,10.82-10.75.19-7.59,4.6-11.86,10.46-14.93l10.2-7.91.15,9.55c5.68,2.23,9.29,7.21,9.17,13.62,2.91,2.03,3.62,4.77,1.66,7.69-2.7,2.45-6.07,3.72-9.69,4.46-3.17.65-2.96,4.81-1.72,7.1,5.05,9.35-7.14,21.91,2.07,38.66,1,1.82-.3,4.04-2.37,4.02-3.97-.05-6.61-1.28-8.13-9.43l-3.71-16.07-5.72,17.08,4.2,7.53c-10.94.15-22.44,1.68-31.88,1.47-.26.09-.59.14-1,.14-26.38.11-46.93.96-51.56-24.51-8.52-46.93,19.72-58.39,27.95-85.66,6.08-20.14-2.65-47.32-23.52-49.34-11.07-.84-14.51,13.49-4.5,17.74,7.19,3.05,11.51,8.66,12.03,16.7,1.01,32.89-47.47,56.28-24.89,110.42,11.46,24.86,36.34,26.71,61.24,26.31,12.78-.21,72.62,0,72.62,0,5.9-4.26,5.16-15.31-6.6-15.95-8.71-41.75,27.5-55.13,21.34-89.05,0,0-3.82-21.65-3.82-21.65-1.68-17.65,20.21-5.23,23.38-27.43,1.39-8.8-6.17-6.13-9.5-16.14ZM194.59,87.21c-.56-6.6-.98-13.31,3.13-18.64l5.67,11.64-8.81,6.99ZM198.03,112.61c4.79-4.95,26.29-9.56,28.2-3.02-9.84-1.89-17.83.92-28.2,3.02ZM202.52,123.37c5.06-7.8,14.91-13.51,24.08-11.18-9.35,2.35-16.76,5.51-24.08,11.18ZM220.81,95.73c5.44-4.84,8.59-2.91,8.89,3.69.14,1.37-4.91,1.21-8.89-3.69Z"/>
      <path d="M228.48,62.79l-11.95,12.1c5.07.92,7.98,1.39,11.92,3l.03-15.1Z"/>
    </g>
  </g>
</svg>