<?xml version="1.0" encoding="UTF-8"?>
<svg id="Layer_2" data-name="Layer 2" xmlns="http://www.w3.org/2000/svg" viewBox="0 0 174.32 203.65">
  <g id="Layer_1-2" data-name="Layer 1">
    <g>
      <path d="M164.65,33.39c-4-12-16.56-14.13-28.86-15.12L127.43,0c-10.64,8.06-11.84,20.74-16.36,29.5-4.05,7.85-6.44,15.62-6.57,24.58-.2,13.12-6.75,24.47-18.57,30.22l-18.24,8.87c-50.46,19.56-56.28,93.66-15.53,90.03-2.18-5.04-1.69-12.84,2.61-24.79,1.47-4.61,4.3-8.48,7.92-11.57,6.38-5.54,15.01-7.53,23.33-7.12,6.49.66,10.67-4.78,10.82-10.75.19-7.59,4.6-11.86,10.46-14.93l10.2-7.91.15,9.55c5.68,2.23,9.29,7.21,9.17,13.62,2.91,2.03,3.62,4.77,1.66,7.69-2.7,2.45-6.07,3.72-9.69,4.46-3.17.65-2.96,4.81-1.72,7.1,5.05,9.35-7.14,21.91,2.07,38.66,1,1.82-.3,4.04-2.37,4.02-3.97-.05-6.61-1.28-8.13-9.43l-3.71-16.07-5.72,17.08,4.2,7.53c-10.94.15-22.44,1.68-31.88,1.47-.26.09-.59.14-1,.14-26.38.11-46.93.96-51.56-24.51-8.52-46.93,19.72-58.39,27.95-85.66,6.08-20.14-2.65-47.32-23.52-49.34-11.07-.84-14.51,13.49-4.5,17.74,7.19,3.05,11.51,8.66,12.03,16.7,1.01,32.89-47.47,56.28-24.89,110.42,11.46,24.86,36.34,26.71,61.24,26.31,12.78-.21,72.62,0,72.62,0,5.9-4.26,5.16-15.31-6.6-15.95-8.71-41.75,27.5-55.13,21.34-89.05,0,0-3.82-21.65-3.82-21.65-1.68-17.65,20.21-5.23,23.38-27.43,1.39-8.8-6.17-6.13-9.5-16.14ZM122.32,28.96c-.56-6.6-.98-13.31,3.13-18.64l5.67,11.64-8.81,6.99ZM125.76,54.35c4.79-4.95,26.29-9.56,28.2-3.02-9.84-1.89-17.83.92-28.2,3.02ZM130.25,65.11c5.06-7.8,14.91-13.51,24.08-11.18-9.35,2.35-16.76,5.51-24.08,11.18ZM148.54,37.47c5.44-4.84,8.59-2.91,8.89,3.69.14,1.37-4.91,1.21-8.89-3.69Z"/>
      <path d="M156.21,4.53l-11.95,12.1c5.07.92,7.98,1.39,11.92,3l.03-15.1Z"/>
    </g>
  </g>
</svg>