<?xml version="1.0" encoding="UTF-8"?>
<svg id="Layer_2" data-name="Layer 2" xmlns="http://www.w3.org/2000/svg" viewBox="0 0 319.41 320.54">
  <g id="Layer_1-2" data-name="Layer 1">
    <g>
      <g>
        <path d="M6.25,146.98c.16-1.85,1.8-3.22,3.65-3.05,1.85.16,3.22,1.8,3.05,3.65s-1.8,3.22-3.65,3.05c-1.85-.16-3.22-1.8-3.05-3.65Z"/>
        <path d="M9.29,120.49c-1.53.53-2.42,1.39-2.89,3.36-.43,1.78.16,2.93,1.49,3.25,1.52.37,2.5-.71,3.77-3.15,1.99-3.82,3.95-5.29,7.39-4.46,3.19.76,5.15,3.5,4.06,8.07-.82,3.41-2.32,5.56-4.98,6.74l-1.36-3.52c1.55-.73,2.48-1.76,2.96-3.76.54-2.26-.26-3.25-1.45-3.54-1.35-.33-2.31.31-3.89,3.27-1.93,3.59-4.23,5.07-7.44,4.3-3.07-.74-4.98-3.34-3.88-7.97.74-3.1,2.35-5.19,4.82-6.06l1.4,3.47Z"/>
        <path d="M28.12,111.3c-1.58,4.21-5.25,6.2-10.97,4.04l-2.66-1c-5.78-2.18-7.16-6.08-5.58-10.28,1.6-4.23,5.21-6.25,10.98-4.07l2.66,1c5.72,2.16,7.16,6.08,5.57,10.31ZM18.58,111.54c3.58,1.35,5.51.75,6.34-1.45.83-2.2-.21-3.95-3.8-5.3l-2.66-1c-3.58-1.35-5.52-.72-6.35,1.48-.83,2.2.22,3.93,3.81,5.28l2.66,1Z"/>
        <path d="M23.73,84.96c-1.61.14-2.69.75-3.63,2.55-.85,1.62-.56,2.88.64,3.51,1.39.73,2.6-.08,4.43-2.13,2.87-3.21,5.13-4.15,8.26-2.5,2.9,1.52,4.13,4.66,1.95,8.82-1.63,3.11-3.61,4.82-6.49,5.3l-.46-3.74c1.68-.33,2.84-1.1,3.79-2.92,1.08-2.05.54-3.22-.53-3.79-1.23-.65-2.32-.27-4.57,2.22-2.76,3-5.34,3.87-8.27,2.33-2.8-1.47-4.01-4.46-1.8-8.67,1.48-2.82,3.55-4.45,6.16-4.69l.51,3.71Z"/>
        <path d="M39.8,63.14c-1.72-.86-3.31-.7-4.52.86-1.44,1.86-.94,3.82,2.08,6.17l2.25,1.74c2.93,2.28,5.05,2.34,6.49.48,1.24-1.6,1.05-3.01-.29-4.59l2.36-3.05c3.14,3.28,3.16,6.49.63,9.74-2.76,3.55-6.85,4.38-11.68.63l-2.25-1.74c-4.88-3.79-5.05-7.92-2.3-11.47,2.44-3.14,5.74-3.99,9.61-1.83l-2.38,3.07Z"/>
        <path d="M49.43,54.9l4.92-4.89-5.6-5.64,2.88-2.86,14.11,14.19-2.88,2.86-6.09-6.13-4.92,4.89,6.09,6.13-2.88,2.86-14.11-14.19,2.88-2.86,5.6,5.64Z"/>
        <path d="M67.17,54.34l-6.62-20.12,3.09-2.36,17.68,11.67-3.43,2.62-3.28-2.28-5.32,4.07,1.34,3.76-3.46,2.64ZM68.06,44.57l3.59-2.75-6.08-4.22,2.48,6.97Z"/>
        <path d="M83.36,19.1l1.78,2.96-4.72,2.84,8.53,14.19-3.48,2.09-8.53-14.19-4.72,2.84-1.78-2.96,12.93-7.77Z"/>
        <path d="M99.16,17.42c-1.36-.88-2.58-1.06-4.43-.22-1.66.75-2.21,1.93-1.65,3.17.65,1.43,2.09,1.53,4.8,1.04,4.23-.77,6.6-.12,8.06,3.1,1.35,2.99.4,6.22-3.88,8.16-3.2,1.45-5.81,1.58-8.38.2l1.94-3.24c1.53.77,2.91.88,4.79.03,2.11-.96,2.41-2.2,1.91-3.31-.57-1.27-1.66-1.63-4.97-1.06-4.02.68-6.6-.23-7.96-3.24-1.3-2.88-.42-5.99,3.91-7.95,2.9-1.32,5.54-1.33,7.74.09l-1.88,3.24Z"/>
        <path d="M119.51,13.33l6.73-1.66-1.9-7.71,3.94-.97,4.79,19.43-3.94.97-2.07-8.39-6.73,1.66,2.07,8.39-3.94.97-4.79-19.42,3.94-.97,1.9,7.71Z"/>
        <path d="M135.01,21.97l4.71-20.66,3.86-.43,9.13,19.12-4.29.48-1.63-3.64-6.66.74-.79,3.91-4.32.48ZM140.81,14.06l4.5-.5-3.03-6.75-1.47,7.25Z"/>
        <path d="M170.34.29l-.23,11.89c-.11,5.91-3.41,8.32-7.84,8.23-4.44-.08-7.64-2.61-7.52-8.5l.23-11.92,4.06.08-.23,11.92c-.06,3.42,1.04,4.95,3.53,5,2.49.05,3.65-1.44,3.72-4.86l.23-11.92,4.06.08Z"/>
        <path d="M190.05,2.83l-.49,3.42-5.45-.78-2.35,16.39-4.02-.58,2.35-16.39-5.45-.78.49-3.42,14.92,2.14Z"/>
        <path d="M206.64,6.98l-.87,3.34-8.14-2.12-1.13,4.35,7.3,1.9-.86,3.31-7.3-1.9-1.31,5.05,8.14,2.12-.86,3.31-12.07-3.14,5.03-19.36,12.07,3.14Z"/>
        <path d="M206.85,17.65l7.07,2.53-1.1,3.06-7.07-2.53,1.1-3.06Z"/>
        <path d="M213.44,30.62l8.59-18.08,6.42,3.05c4.09,1.94,5.95,5.4,3.21,11.16l-1.12,2.36c-2.73,5.74-6.59,6.5-10.68,4.56l-6.42-3.05ZM226.87,27.37l1.12-2.36c1.48-3.12,1.42-5.14-1.02-6.3l-2.75-1.31-5.64,11.87,2.75,1.31c2.44,1.16,4.06-.09,5.54-3.21Z"/>
        <path d="M235.55,42.71c-3.78-2.44-4.96-6.44-1.64-11.58l1.54-2.39c3.35-5.19,7.45-5.72,11.23-3.28,3.8,2.45,5.01,6.41,1.66,11.6l-1.54,2.39c-3.32,5.14-7.45,5.72-11.25,3.27ZM237.32,33.33c-2.07,3.22-1.89,5.23.08,6.51s3.91.62,5.99-2.59l1.54-2.39c2.08-3.22,1.87-5.25-.11-6.52-1.97-1.27-3.89-.61-5.96,2.61l-1.54,2.39Z"/>
        <path d="M253.23,55.78l2.32-8.32-2.48-2.1-5.07,6-3.1-2.62,12.91-15.29,5.47,4.62c3.52,2.97,4.39,6.4,1.77,9.5-1.74,2.06-3.83,2.61-6.08,1.89l-2.33,9.19-3.41-2.88ZM257.36,44.5c1.84,1.55,3.24,2.05,4.59.46,1.35-1.6.66-2.94-1.18-4.49l-2.08-1.76-3.4,4.03,2.08,1.76Z"/>
        <path d="M258.48,60.53l14.75-13.52,4.8,5.24c3.06,3.33,3.48,7.23-1.22,11.54l-1.92,1.76c-4.68,4.29-8.55,3.55-11.61.21l-4.8-5.24ZM272.14,62.57l1.92-1.76c2.54-2.33,3.24-4.23,1.42-6.22l-2.06-2.25-9.68,8.88,2.06,2.24c1.82,1.99,3.8,1.44,6.34-.89Z"/>
        <path d="M274.43,80.04c-2.59-3.68-2.18-7.83,2.82-11.35l2.32-1.64c5.05-3.56,9.05-2.51,11.64,1.17,2.61,3.7,2.24,7.82-2.81,11.38l-2.32,1.64c-5,3.52-9.05,2.51-11.66-1.19ZM279.59,72.01c-3.13,2.2-3.72,4.14-2.36,6.06,1.35,1.92,3.39,2.05,6.52-.16l2.32-1.64c3.13-2.2,3.7-4.17,2.35-6.09-1.35-1.92-3.38-2.02-6.5.18l-2.32,1.64Z"/>
        <path d="M296.76,97.03l-1.62.85c-5.41,2.86-9.15,1.61-11.26-2.39-2.1-3.98-1.16-8.04,4.25-10.9l2.26-1.19c5.72-3.02,9.55-1.47,11.65,2.51,1.96,3.72,1.04,7.06-2.29,9.51l-1.81-3.44c1.45-1.16,2.03-2.68,1.08-4.47-1.1-2.08-3.09-2.44-6.47-.65l-2.51,1.33c-3.39,1.79-4.21,3.63-3.12,5.71,1.07,2.03,2.76,2.18,5,1.27l-1.57-2.97,3.03-1.6,3.4,6.44Z"/>
        <path d="M312.93,112.19l-18.77,6.93-1.17-3.18,8.92-11.61-11.62,4.29-1.33-3.62,18.77-6.93,1.16,3.16-9.07,11.69,11.78-4.35,1.34,3.62Z"/>
        <path d="M317.56,130.66l-3.36.79-1.92-8.19-4.38,1.02,1.72,7.34-3.33.78-1.72-7.34-5.08,1.19,1.92,8.19-3.33.78-2.84-12.15,19.49-4.56,2.84,12.15Z"/>
        <path d="M312.87,147.1c.16,1.85-1.21,3.48-3.05,3.65s-3.48-1.21-3.65-3.05c-.16-1.85,1.21-3.48,3.05-3.65,1.85-.16,3.48,1.21,3.65,3.05Z"/>
      </g>
      <g>
        <path d="M15.34,174.96c1.3-.96,1.89-2.05,1.75-4.07-.13-1.82-1.03-2.75-2.39-2.65-1.56.11-2.17,1.43-2.65,4.14-.75,4.24-2.19,6.23-5.72,6.47-3.27.23-5.97-1.8-6.29-6.48-.24-3.5.54-6,2.74-7.92l2.36,2.95c-1.26,1.16-1.84,2.42-1.7,4.48.16,2.31,1.23,3.03,2.44,2.94,1.39-.1,2.11-.99,2.73-4.29.77-4.01,2.51-6.1,5.81-6.33,3.15-.22,5.76,1.7,6.08,6.44.22,3.18-.68,5.66-2.79,7.23l-2.38-2.89Z"/>
        <path d="M23.57,193.62l-3.39.62-1-5.42-16.28,3-.74-3.99,16.29-3-1-5.42,3.39-.62,2.73,14.83Z"/>
        <path d="M27.72,207.5l-3.3.99-2.42-8.05-4.3,1.29,2.17,7.22-3.28.98-2.17-7.22-5,1.5,2.42,8.05-3.28.98-3.58-11.94,19.16-5.75,3.58,11.94ZM30.94,199.96l1.22,4.08-4.44-1.79-1.03-3.44,4.25,1.15Z"/>
        <path d="M14.64,228l5.77-6.43-1.3-2.98-7.21,3.13-1.62-3.72,18.35-7.98,2.86,6.57c1.84,4.23,1.1,7.68-2.63,9.3-2.47,1.08-4.59.64-6.29-1l-6.17,7.2-1.78-4.1ZM23.34,219.72c.96,2.21,1.99,3.28,3.91,2.44s1.89-2.34.93-4.55l-1.09-2.5-4.84,2.1,1.09,2.5Z"/>
        <path d="M20.5,239.32l-1.96-3.56,17.54-9.63,1.96,3.56-17.54,9.63Z"/>
        <path d="M28.16,245.38l4.62,7.03-2.86,1.88-6.84-10.43,16.73-10.98,2.23,3.39-13.87,9.1Z"/>
        <path d="M34.57,260.18l-2.49-3.21,15.81-12.27,2.49,3.21-15.81,12.27Z"/>
        <path d="M55.91,262.05c.41-1.56.19-2.78-1.19-4.28-1.24-1.34-2.53-1.5-3.53-.57-1.15,1.06-.8,2.47.53,4.89,2.07,3.78,2.2,6.22-.4,8.62-2.41,2.22-5.78,2.34-8.97-1.11-2.38-2.58-3.33-5.02-2.83-7.89l3.68.82c-.25,1.69.08,3.04,1.48,4.55,1.58,1.7,2.85,1.59,3.75.76,1.02-.95,1.03-2.09-.56-5.05-1.91-3.61-1.86-6.33.56-8.58,2.32-2.15,5.55-2.29,8.78,1.21,2.17,2.34,3.01,4.84,2.36,7.38l-3.67-.76Z"/>
        <path d="M73.46,270.97l-2.26,2.61-6.36-5.5-2.94,3.4,5.71,4.93-2.24,2.59-5.71-4.93-3.41,3.95,6.36,5.5-2.24,2.59-9.44-8.15,13.08-15.14,9.44,8.15Z"/>
        <path d="M73.43,295.31l1.43-8.52-2.69-1.82-4.4,6.51-3.36-2.27,11.21-16.57,5.93,4.01c3.82,2.58,5.04,5.9,2.77,9.26-1.51,2.23-3.54,3-5.84,2.53l-1.34,9.38-3.7-2.5ZM76.34,283.66c1.99,1.35,3.44,1.7,4.61-.03s.34-2.99-1.65-4.34l-2.26-1.53-2.96,4.37,2.26,1.53Z"/>
        <path d="M94.88,292.18c1.66.82,2.35,2.84,1.53,4.5s-2.84,2.35-4.5,1.53-2.35-2.84-1.53-4.5,2.84-2.35,4.5-1.53Z"/>
        <path d="M123.22,295.88l-6.22,19.01-3.22-1.05-3.56-14.19-3.85,11.77-3.67-1.2,6.22-19.01,3.2,1.05,3.54,14.37,3.9-11.93,3.67,1.2Z"/>
        <path d="M130.39,318.06c-4.42-.81-7.04-4.07-5.93-10.08l.52-2.79c1.12-6.07,4.71-8.13,9.13-7.31,4.45.82,7.07,4.01,5.96,10.09l-.51,2.79c-1.11,6.02-4.71,8.13-9.16,7.31ZM128.46,308.71c-.69,3.76.25,5.56,2.55,5.98,2.31.42,3.85-.91,4.55-4.68l.52-2.79c.69-3.76-.27-5.56-2.58-5.99-2.31-.43-3.83.92-4.52,4.68l-.51,2.79Z"/>
        <path d="M160.38,300.66l-.58,11.87c-.29,5.91-3.65,8.21-8.08,8-4.43-.21-7.55-2.83-7.27-8.71l.58-11.9,4.05.2-.58,11.9c-.17,3.42.89,4.98,3.38,5.1,2.49.12,3.69-1.33,3.86-4.75l.58-11.9,4.05.2Z"/>
        <path d="M176.91,319.57l-4.24-7.53-3.24.27.65,7.83-4.05.34-1.66-19.94,7.14-.6c4.59-.38,7.63,1.43,7.96,5.48.22,2.69-.87,4.55-2.96,5.63l4.84,8.15-4.45.37ZM171.87,308.67c2.4-.2,3.74-.84,3.57-2.92s-1.61-2.54-4.01-2.34l-2.72.23.44,5.26,2.72-.23Z"/>
        <path d="M197.04,316.07l-5.17-6.93-3.17.68,1.65,7.68-3.97.85-4.2-19.56,7-1.5c4.51-.97,7.75.44,8.6,4.41.57,2.64-.28,4.63-2.22,5.96l5.84,7.46-4.37.94ZM190.65,305.91c2.35-.5,3.6-1.31,3.17-3.35-.44-2.04-1.92-2.32-4.27-1.81l-2.67.57,1.11,5.16,2.66-.57Z"/>
        <path d="M209.31,312.55l-3.87,1.21-5.99-19.09,3.87-1.22,5.99,19.09Z"/>
        <path d="M224.77,306.62l-6.35-5.86-3,1.25,3.04,7.25-3.75,1.57-7.73-18.46,6.61-2.77c4.25-1.78,7.7-.99,9.27,2.75,1.04,2.49.57,4.6-1.08,6.27l7.12,6.26-4.12,1.73ZM216.62,297.8c2.22-.93,3.3-1.95,2.5-3.87-.81-1.93-2.31-1.92-4.53-.99l-2.52,1.05,2.04,4.87,2.51-1.05Z"/>
        <path d="M233.92,286.93c1.6-.94,3.66-.41,4.61,1.19s.41,3.66-1.19,4.61c-1.6.94-3.66.41-4.61-1.19s-.41-3.66,1.19-4.61Z"/>
        <path d="M251.85,282.37l4.36,5.54-3.19,2.51-12.37-15.73,5.63-4.43c3.62-2.85,7.19-2.96,9.84.41,2.62,3.33,1.82,6.91-1.83,9.78l-2.44,1.92ZM251.71,278.12c2.21-1.74,2.54-3.25,1.21-4.94-1.18-1.5-2.76-1.59-4.97.15l-1.98,1.56,3.76,4.79,1.98-1.56Z"/>
        <path d="M275.81,270.3l-8.12-2.97-2.29,2.31,5.59,5.53-2.86,2.89-14.22-14.08,5.04-5.09c3.24-3.28,6.73-3.87,9.61-1.01,1.92,1.9,2.3,4.03,1.41,6.21l8.98,3.05-3.14,3.17ZM264.89,265.29c1.69-1.71,2.3-3.07.82-4.54-1.48-1.47-2.88-.89-4.57.82l-1.92,1.94,3.75,3.71,1.92-1.94Z"/>
        <path d="M286.64,257.88c-2.73,3.57-6.82,4.43-11.68.71l-2.26-1.73c-4.91-3.75-5.11-7.89-2.38-11.46,2.75-3.59,6.79-4.48,11.7-.73l2.26,1.73c4.86,3.72,5.11,7.89,2.36,11.48ZM277.43,255.37c3.04,2.33,5.07,2.31,6.49.44,1.43-1.87.94-3.85-2.11-6.18l-2.26-1.73c-3.04-2.33-5.08-2.28-6.51-.42-1.43,1.87-.92,3.83,2.12,6.15l2.26,1.73Z"/>
        <path d="M283.62,225.41l2.97,1.76-2.81,4.74,14.25,8.44-2.07,3.49-14.25-8.44-2.81,4.74-2.97-1.76,7.69-12.97Z"/>
        <path d="M282.21,215.82l1.76-3.88,2.17,4.27-1.49,3.28-2.45-3.66ZM289.6,212.25l3.14,1.43-3.48,7.66,4.09,1.86,3.12-6.87,3.12,1.42-3.12,6.87,4.75,2.16,3.48-7.66,3.12,1.42-5.16,11.36-18.22-8.28,5.16-11.36Z"/>
        <path d="M304.09,198.92l1.74.55c5.83,1.85,7.57,5.39,6.2,9.7-1.36,4.28-4.92,6.47-10.75,4.61l-2.43-.77c-6.16-1.96-7.75-5.78-6.38-10.06,1.27-4.01,4.3-5.69,8.38-5.03l-1.18,3.7c-1.85-.22-3.33.43-3.95,2.37-.71,2.24.43,3.91,4.08,5.07l2.71.86c3.65,1.16,5.55.46,6.26-1.78.7-2.18-.38-3.5-2.6-4.45l-1.02,3.21-3.26-1.04,2.21-6.94Z"/>
        <path d="M297.98,180.61l3.39.65-1.58,8.26,4.41.85,1.42-7.4,3.36.64-1.42,7.4,5.12.98,1.58-8.26,3.36.64-2.35,12.24-19.65-3.77,2.35-12.24Z"/>
        <path d="M319.09,168.5l-8.1,3.02-.23,3.24,7.84.57-.29,4.05-19.96-1.44.52-7.15c.33-4.6,2.59-7.32,6.64-7.02,2.69.19,4.37,1.57,5.11,3.8l8.8-3.52-.32,4.46ZM307.54,171.79c.17-2.4-.25-3.83-2.33-3.98s-2.76,1.2-2.94,3.6l-.2,2.72,5.26.38.2-2.72Z"/>
      </g>
    </g>
    <g>
      <path d="M237.04,90.27c-4-12-16.56-14.13-28.86-15.12l-8.36-18.27c-10.64,8.06-11.84,20.74-16.36,29.5-4.05,7.85-6.44,15.62-6.57,24.58-.2,13.12-6.75,24.47-18.57,30.22l-18.24,8.87c-50.46,19.56-56.28,93.66-15.53,90.03-2.18-5.04-1.69-12.84,2.61-24.79,1.47-4.61,4.3-8.48,7.92-11.57,6.38-5.54,15.01-7.53,23.33-7.12,6.49.66,10.67-4.78,10.82-10.75.19-7.59,4.6-11.86,10.46-14.93l10.2-7.91.15,9.55c5.68,2.23,9.29,7.21,9.17,13.62,2.91,2.03,3.62,4.77,1.66,7.69-2.7,2.45-6.07,3.72-9.69,4.46-3.17.65-2.96,4.81-1.72,7.1,5.05,9.35-7.14,21.91,2.07,38.66,1,1.82-.3,4.04-2.37,4.02-3.97-.05-6.61-1.28-8.13-9.43l-3.71-16.07-5.72,17.08,4.2,7.53c-10.94.15-22.44,1.68-31.88,1.47-.26.09-.59.14-1,.14-26.38.11-46.93.96-51.56-24.51-8.52-46.93,19.72-58.39,27.95-85.66,6.08-20.14-2.65-47.32-23.52-49.34-11.07-.84-14.51,13.49-4.5,17.74,7.19,3.05,11.51,8.66,12.03,16.7,1.01,32.89-47.47,56.28-24.89,110.42,11.46,24.86,36.34,26.71,61.24,26.31,12.78-.21,72.62,0,72.62,0,5.9-4.26,5.16-15.31-6.6-15.95-8.71-41.75,27.5-55.13,21.34-89.05,0,0-3.82-21.65-3.82-21.65-1.68-17.65,20.21-5.23,23.38-27.43,1.39-8.8-6.17-6.13-9.5-16.14ZM194.72,85.83c-.56-6.6-.98-13.31,3.13-18.64l5.67,11.64-8.81,6.99ZM198.15,111.23c4.79-4.95,26.29-9.56,28.2-3.02-9.84-1.89-17.83.92-28.2,3.02ZM202.65,121.99c5.06-7.8,14.91-13.51,24.08-11.18-9.35,2.35-16.76,5.51-24.08,11.18ZM220.93,94.35c5.44-4.84,8.59-2.91,8.89,3.69.14,1.37-4.91,1.21-8.89-3.69Z"/>
      <path d="M228.61,61.41l-11.95,12.1c5.07.92,7.98,1.39,11.92,3l.03-15.1Z"/>
    </g>
  </g>
</svg>